<?xml version="1.0" encoding="iso-8859-1"?>
<!-- Generator: Adobe Illustrator 16.0.4, SVG Export Plug-In . SVG Version: 6.00 Build 0)  -->
<!DOCTYPE svg PUBLIC "-//W3C//DTD SVG 1.1//EN" "http://www.w3.org/Graphics/SVG/1.1/DTD/svg11.dtd">
<svg version="1.1" id="Capa_1" xmlns="http://www.w3.org/2000/svg" xmlns:xlink="http://www.w3.org/1999/xlink" x="0px" y="0px"
	 width="80.502px" height="80.467px" viewBox="0 0 80.502 80.467" style="enable-background:new 0 0 80.502 80.467;"
	 xml:space="preserve">
<g id="Zoom_1_">
	<g>
		<path d="M80.502,74.64L58.687,52.724c4.194-5.524,6.692-12.415,6.692-19.884C65.379,14.736,50.715,0,32.689,0S0,14.736,0,32.84
			c0,18.111,14.664,32.848,32.689,32.848c7.643,0,14.675-2.656,20.247-7.088l21.767,21.867L80.502,74.64z M32.689,58.295
			c-13.967,0-25.332-11.419-25.332-25.455c0-14.027,11.365-25.446,25.332-25.446c13.968,0,25.333,11.419,25.333,25.446
			C58.022,46.876,46.657,58.295,32.689,58.295z"/>
	</g>
</g>
<g>
</g>
<g>
</g>
<g>
</g>
<g>
</g>
<g>
</g>
<g>
</g>
<g>
</g>
<g>
</g>
<g>
</g>
<g>
</g>
<g>
</g>
<g>
</g>
<g>
</g>
<g>
</g>
<g>
</g>
</svg>
